<svg xmlns="http://www.w3.org/2000/svg" width="933.333" height="933.333" preserveAspectRatio="xMidYMid meet" version="1.0" viewBox="0 0 700 700"><metadata>Created by potrace 1.14, written by Peter Selinger 2001-2017</metadata><g fill="#000" stroke="none"><path d="M253 6986 c-102 -32 -176 -97 -222 -196 l-26 -55 0 -3235 0 -3235 26 -56 c37 -79 90 -133 167 -171 l67 -33 1925 0 1925 0 55 27 c102 50 179 149 197 253 5 28 8 306 8 620 l-2 570 -30 65 c-37 79 -97 141 -172 178 l-56 27 -475 2 c-261 2 -736 4 -1055 5 l-580 3 -53 28 c-46 24 -117 86 -147 128 -17 24 -35 69 -45 114 -6 28 -10 882 -10 2367 l-1 2323 -24 59 c-34 84 -89 145 -170 186 l-68 35 -596 2 c-470 1 -605 -1 -638 -11z" transform="translate(0.000000,700.000000) scale(0.100000,-0.100000)"/><path d="M2861 6980 c-82 -30 -142 -79 -186 -154 -50 -86 -51 -99 -50 -721 l2 -580 30 -65 c36 -79 94 -138 171 -176 l57 -29 570 -2 c314 -2 786 -4 1050 -5 l480 -3 55 -26 c98 -46 152 -106 191 -211 18 -51 19 -119 19 -2371 0 -1537 4 -2333 10 -2363 24 -104 90 -188 188 -236 l67 -33 610 0 610 0 66 32 c77 38 130 93 167 171 l27 57 3 3210 c2 3524 7 3273 -58 3368 -39 58 -81 94 -150 126 l-55 26 -1910 2 c-1864 2 -1911 2 -1964 -17z" transform="translate(0.000000,700.000000) scale(0.100000,-0.100000)"/></g></svg>